<?xml version="1.0" encoding="UTF-8"?>
<svg id="Layer_1" data-name="Layer 1" xmlns="http://www.w3.org/2000/svg" viewBox="0 0 458.4 691.12">
  <defs>
    <style>
      .cls-1 {
        fill: #006db0;
      }
    </style>
  </defs>
  <rect class="cls-1" x="170.93" y="632.41" width="197.34" height="17.12"/>
  <circle class="cls-1" cx="386.24" cy="640.98" r="12.38"/>
  <path class="cls-1" d="M436.88,563.05c0-20.17-11.03-24.28-11.03-24.28,0,0-1.36-10.96-2.75-14.33-.84-2.02-4.91-7.23-4.91-7.23-.61-.82-1.58-1.3-2.6-1.3h-88.93c-1.02,0-1.99.48-2.6,1.3,0,0-4.09,5.25-4.88,7.29-1.04,2.68-1.73,11.35-1.73,11.35-.19,1.83-1.73,3.22-3.57,3.22h-27.58c-1.98,0-3.58-1.6-3.58-3.58v-28.03c0-3.03-2.4-5.51-5.43-5.62-2.13-.07-4.75-.13-7.71-.16-.22-12.21-1.91-60.7-14.86-84.89-1.93-3.6-8.27-13.73-8.27-13.73l-2.55-12.28-84.31-89.39-2.9,2.76-33.48-34.04,1.3-2.96c.76-1.73.45-3.74-.8-5.16l-33.97-38.73-11.92.85V33.77s.04-.03.05-.04c1.34-1.1,1.24-2.86.27-3.86-.97-1.01-3.62-4.05-6.69-7.12-3.07-3.06-4.83-1.47-5.73-.97-.9.51-8.82,5.86-9.69,6.5-.87.65-1.24,1.95-.28,3.09.34.41.92,1.02,1.51,1.63v100.06h-10.41c-3.05,0-5.51,2.47-5.51,5.51v6.61c0,4.7-1.41,9.28-4.04,13.17l-1.68,2.48c-2.63,3.89-4.04,8.48-4.04,13.17v73.85h-10.16v349.5c0,1.52.76,2.94,2.02,3.8l8.68,5.86c1.56,1.06,3.61,1.05,5.17-.03l8.45-5.83c1.24-.86,1.98-2.26,1.98-3.77v-101.47h5.72l-.29,12.91c-.07,3.11,2.43,5.67,5.54,5.67h17.74c3.11,0,5.61-2.56,5.54-5.67l-.55-24.45c-.02-1.37-.68-2.66-1.79-3.48-1.12-.84-1.79-2.15-1.79-3.56v-57.03c0-1.34,1.09-2.42,2.42-2.42h0c11.03,0,19.98-8.94,19.98-19.98h0c0-11.03-8.94-19.98-19.98-19.98-1.34,0-2.42-1.09-2.42-2.42v-18.31l10.53-8.07v-3.82c0-1.32,1.06-2.4,2.39-2.41l1.6-.02c1.29-.01,2.42-.85,2.81-2.07,1.23-3.82,3.93-11.98,5.7-15.7,6.13,4.71,81.47,56.68,100.43,83.2,22,30.77,23.52,79.77,23.48,93.42-3.88.02-7.27.04-9.86.04-9.5,0-15.55,16.62-19.52,34.03-3.93,17.21-4.8,31.85-1.15,49.12.17.8.34,1.56.51,2.27,1.88,7.79,8.83,13.28,16.84,13.29,4.88,0,10.26,0,14.55,0v5.96h-33.37c-9.41,0-26.41,7.34-26.41,7.34-10.85,4.27-18.53,14.83-18.53,27.2h0c0,16.14,13.08,29.22,29.22,29.22h209.02c16.14,0,29.22-13.08,29.22-29.22h0c0-12-7.23-22.3-17.57-26.8h.01s-.1-.04-.1-.04c-.63-.27-17.59-7.69-28.7-7.69h-53.55v-6.06c38.71.01,81.53.05,104.67.07,9.43,0,17.06-7.67,17-17.11l-.14-20.31ZM57.23,477.36c0,1.4-.66,2.72-1.79,3.56-1.1.82-1.76,2.11-1.79,3.48l-.07,2.92h-5.92V179.74h9.56v297.62ZM77.79,249.85h6.16c0,6.99,0,14.91.01,23.1l-6.17-16.29v-6.81ZM77.79,323.39v-3.92l6.22-17.88c.02,7.97.04,15.45.05,21.81h-6.28ZM111.03,298.7l9.48-23.58,32.71,33.38-2.53,2.83s51.39,52.7,55.7,58.59l-95.37-71.21ZM247.4,517.19c0-1.45,1.17-2.62,2.62-2.62h19.57c1.48,0,2.7,1.18,2.74,2.66l.76,25.87c0,.16.06,1.29.08,2.42.04,1.46-.68,2.83-1.89,3.63l-19.55,8.81c-2.03.92-4.34-.57-4.34-2.8v-37.97ZM301.27,600.38v6.06h-61.08v-6.01c10.57-.04,33.97-.05,61.08-.05ZM204.41,543.76l.06-.35c1.17-6.32,2.88-12.54,5.1-18.57l1.72-4.66c1.24-3.38,4.46-5.62,8.06-5.62h18.13c1.72,0,3.11,1.39,3.11,3.11v26.65c0,1.72-1.39,3.11-3.11,3.11h-30.02c-1.94,0-3.41-1.76-3.06-3.67ZM205.76,577.36c-1.03,0-1.9-.76-2.04-1.78l-.98-7.13c-.54-3.9-.56-7.85-.06-11.75.13-1.03,1.01-1.8,2.04-1.8h34.05c1.14,0,2.06.92,2.06,2.06v6.86c0,1.4-.62,2.73-1.68,3.64-1.82,1.56-2.31,2.13-4.13,3.96l-4.77,4.97c-.62.71-1.53.98-2.47.98h-22ZM384.75,622.84c10.01,0,18.13,8.12,18.13,18.13s-8.12,18.13-18.13,18.13h-206.44c-10.01,0-18.13-8.12-18.13-18.13s8.12-18.13,18.13-18.13h206.44ZM412.14,589.92c0,1.07-.88,1.93-1.97,1.93h-124.27c-1.1,0-1.99-.88-1.97-1.95l.36-25.74c.01-1.23-.02-5.42-.09-6.65l-.17-5.38c-.07-1.09.82-2.01,1.93-2.01h122.8c.9,0,1.69.61,1.89,1.47.82,3.52,1.5,9.35,1.5,12.96v25.35ZM429.79,579.03c0,1.8-.31,7.95-2.67,10.33-2.47,2.49-5.3,1.99-6.4,2.01-.61.01-1.11-.46-1.11-1.04.06-5.47-.01-32.28-.01-35.93,0-3.33-.83-3.89-.86-5.42-.02-1.28.91-1.39,1.3-1.4,3.11-.12,4.56.86,5.52,1.72,2.23,2.01,4.23,6.06,4.23,9.15v20.58Z"/>
</svg>