<?xml version="1.0" encoding="UTF-8"?>
<svg id="Layer_1" data-name="Layer 1" xmlns="http://www.w3.org/2000/svg" viewBox="0 0 720 494">
  <defs>
    <style>
      .cls-1 {
        fill: #000;
        stroke-width: 0px;
      }
    </style>
  </defs>
  <path class="cls-1" d="M111.43,348.95c-11.03,0-19.98-8.94-19.98-19.98v-120.59c0-11.03,8.94-19.98,19.98-19.98h143.01c29.75,0,46.82-13.63,46.82-37.41,0-12.59-4.17-41.89-42.79-41.89H102.46c-11.03,0-19.98-8.94-19.98-19.98s8.94-19.98,19.98-19.98h156.01c49.49,0,82.74,32.89,82.74,81.84,0,46.27-34.87,77.36-86.78,77.36h-123.03v100.62c0,11.03-8.94,19.98-19.98,19.98Z"/>
  <g>
    <path class="cls-1" d="M581.04,229.32h-130.43c-11.07,0-20.04-8.97-20.04-20.04s8.97-20.04,20.04-20.04h130.43c11.07,0,20.04,8.97,20.04,20.04s-8.97,20.04-20.04,20.04Z"/>
    <path class="cls-1" d="M395.75,348.95c-11.07,0-20.04-8.97-20.04-20.04V89.19c0-11.07,8.97-20.04,20.04-20.04h221.73c11.07,0,20.04,8.97,20.04,20.04s-8.97,20.04-20.04,20.04h-201.68v219.67c0,11.07-8.97,20.04-20.04,20.04Z"/>
  </g>
  <g>
    <path class="cls-1" d="M82.54,395.47h25.29c2.74,0,4.74.56,6.01,1.68,1.27,1.12,1.9,3.16,1.9,6.13v1.19c0,3.32-.67,5.58-2.02,6.78-1.35,1.18-3.78,1.78-7.3,1.78h-19.81v11.51h-4.07v-29.07ZM86.61,398.68v11.15h19.79c3.52,0,5.28-1.38,5.28-4.14v-2.75c0-1.67-.4-2.79-1.21-3.38-.8-.59-2.22-.88-4.27-.88h-19.59Z"/>
    <path class="cls-1" d="M121.58,395.47h4.07v29.07h-4.07v-29.07Z"/>
    <path class="cls-1" d="M132.06,424.54v-29.07h29.32v3.2h-25.26v9.34h24.24v3.2h-24.24v10.12h25.44v3.2h-29.5Z"/>
    <path class="cls-1" d="M167.59,424.54v-29.07h24.3c3.72,0,6.3.57,7.73,1.72,1.43,1.15,2.15,3.27,2.15,6.37v2.36c0,1.93-.44,3.29-1.32,4.1s-2.32,1.33-4.33,1.56c3.51.55,5.26,2.42,5.26,5.63v7.32h-3.8v-6.43c0-1.97-.43-3.3-1.3-4-.86-.72-2.49-1.07-4.88-1.07h-19.75v11.51h-4.07ZM171.66,409.83h19.43c2.16,0,3.8-.29,4.92-.88,1.13-.59,1.7-1.71,1.7-3.38v-2.58c0-1.75-.54-2.9-1.62-3.46-1.07-.57-2.93-.86-5.61-.86h-18.82v11.15Z"/>
    <path class="cls-1" d="M225.75,424.54v-29.07h28.67v3.2h-24.61v9.34h23.66v3.2h-23.66v13.32h-4.07Z"/>
    <path class="cls-1" d="M259.3,414.3v-8.59c0-3.74.84-6.43,2.53-8.07,1.69-1.65,4.47-2.48,8.36-2.48h17.06c3.98,0,6.77.86,8.36,2.58,1.6,1.71,2.41,4.4,2.41,8.09v8.4c0,3.78-.82,6.49-2.45,8.15-1.63,1.65-4.4,2.48-8.32,2.48h-17.06c-3.89,0-6.67-.82-8.36-2.46-1.69-1.65-2.53-4.35-2.53-8.09ZM263.37,404.63v10.7c0,2.21.57,3.82,1.7,4.83,1.13.99,2.95,1.48,5.46,1.48h16.37c2.54,0,4.34-.51,5.42-1.54,1.08-1.04,1.62-2.62,1.62-4.73v-10.68c0-2.27-.56-3.89-1.68-4.86-1.11-.98-2.89-1.47-5.36-1.47h-16.37c-2.7,0-4.57.53-5.61,1.58-1.04,1.05-1.56,2.62-1.56,4.69Z"/>
    <path class="cls-1" d="M303.52,395.47h4.07v21.47c0,1.77.45,3,1.36,3.69.92.68,2.63,1.02,5.14,1.02h14.08c2.43,0,4.11-.33,5.04-.98.93-.66,1.4-1.84,1.4-3.52v-21.68h4.07v21.68c0,2.93-.81,4.95-2.43,6.06-1.61,1.09-4.21,1.64-7.81,1.64h-14.47c-3.68,0-6.35-.54-7.99-1.62-1.63-1.09-2.45-3.19-2.45-6.29v-21.47Z"/>
    <path class="cls-1" d="M344.78,395.47h6.03l27.64,25.55v-25.55h4.07v29.07h-6.03l-27.64-25.55v25.55h-4.07v-29.07Z"/>
    <path class="cls-1" d="M389.19,424.54v-29.07h24.34c4.98,0,8.34,1,10.1,2.99,1.77,1.99,2.65,5.84,2.65,11.55s-.94,9.49-2.81,11.51c-1.86,2.02-5.22,3.03-10.08,3.03h-24.2ZM393.26,421.34h20.7c3.24,0,5.42-.76,6.56-2.29,1.13-1.54,1.7-4.02,1.7-7.44v-2.93c0-3.8-.55-6.42-1.64-7.85-1.09-1.43-3.08-2.15-5.95-2.15h-21.37v22.66Z"/>
    <path class="cls-1" d="M428.39,424.54l17.81-29.07h5.08l17.81,29.07h-4.57l-3.83-6.21h-23.9l-3.83,6.21h-4.57ZM438.69,415.12h20.09l-10.06-16.47-10.04,16.47Z"/>
    <path class="cls-1" d="M463.4,395.47h34.5v3.2h-15.22v25.86h-4.07v-25.86h-15.22v-3.2Z"/>
    <path class="cls-1" d="M503.51,395.47h4.07v29.07h-4.07v-29.07Z"/>
    <path class="cls-1" d="M513.8,414.3v-8.59c0-3.74.84-6.43,2.53-8.07,1.69-1.65,4.47-2.48,8.36-2.48h17.06c3.98,0,6.77.86,8.36,2.58,1.61,1.71,2.41,4.4,2.41,8.09v8.4c0,3.78-.82,6.49-2.45,8.15-1.63,1.65-4.4,2.48-8.32,2.48h-17.06c-3.88,0-6.67-.82-8.36-2.46-1.69-1.65-2.53-4.35-2.53-8.09ZM517.87,404.63v10.7c0,2.21.57,3.82,1.7,4.83,1.13.99,2.95,1.48,5.47,1.48h16.37c2.54,0,4.34-.51,5.42-1.54,1.08-1.04,1.62-2.62,1.62-4.73v-10.68c0-2.27-.56-3.89-1.68-4.86-1.11-.98-2.89-1.47-5.36-1.47h-16.37c-2.7,0-4.57.53-5.61,1.58-1.04,1.05-1.56,2.62-1.56,4.69Z"/>
    <path class="cls-1" d="M558.33,395.47h6.03l27.64,25.55v-25.55h4.07v29.07h-6.03l-27.64-25.55v25.55h-4.07v-29.07Z"/>
    <path class="cls-1" d="M606.68,415.47v1.8c0,1.57.49,2.7,1.48,3.38.98.66,2.74,1,5.28,1h12.59c2.95,0,4.97-.38,6.05-1.15,1.09-.78,1.64-2.17,1.64-4.18,0-1.77-.44-2.99-1.34-3.65-.88-.66-2.6-1-5.16-1h-10.75c-5.33,0-8.93-.55-10.81-1.66-1.86-1.11-2.79-3.35-2.79-6.72,0-2.88.85-4.95,2.55-6.21,1.71-1.28,5.03-1.91,9.94-1.91h9.23c4.48,0,7.64.58,9.49,1.74,1.86,1.15,2.79,3.07,2.79,5.76v1.25h-3.8c0-1.43-.2-2.59-.61-3.48-.39-.88-1.42-1.45-3.08-1.7-1.67-.25-4.05-.37-7.14-.37h-5.73c-4.01,0-6.65.34-7.93,1.02-1.27.66-1.9,2.06-1.9,4.2,0,1.77.46,2.98,1.4,3.63.94.64,2.89.96,5.83.96h12.63c4.11,0,6.98.61,8.58,1.84,1.61,1.21,2.41,3.03,2.41,5.47v1.8c0,2.54-.86,4.44-2.57,5.7-1.71,1.25-4.92,1.88-9.61,1.88h-11.41c-3.92,0-6.75-.57-8.48-1.7-1.71-1.13-2.57-3.01-2.57-5.65v-2.03h3.81Z"/>
  </g>
</svg>